# xmcd
#
# Track frame offsets: 
#        150
#        13682
#        32693
#        50613
#        74149
#        89677
#        102326
#        122445
#        137065
#        151759
#        171758
#        186049
#        209294
#        226736
#        242451
#        262600
#        274373
#        288318
#
# Disc length: 4116 seconds
#
# Revision: 4
# Processed by: cddbd v1.5.2PL0 Copyright (c) Steve Scherf et al.
# Submitted via: ExactAudioCopyFreeDBPlugin 1.0
#
DISCID=f7101212
DTITLE=Various Artist - Man of Somebody's Dreams:  A Tribute To Chris
DTITLE=Gaffney
DYEAR=2009
DGENRE=Rock
TTITLE0=Joe Ely - Lift Your Leg
TTITLE1=Boz Scaggs - Midnight Dream
TTITLE2=Los Lobos - Man of Somebody's Dreams
TTITLE3=Dave Alvin - Artesia
TTITLE4=Peter Case - Six Nights a Week
TTITLE5=Tom Russell - If Daddy Don't Sing Danny Boy
TTITLE6=Calexico - Frank's Tavern
TTITLE7=James McMurtry - Fight (Tonight's the Night)
TTITLE8=Texas Tornados - The Gardens
TTITLE9=Jim Lauderdale and Ollabelle - Glass House
TTITLE10=Iguanas - Get Off My Back Lucy
TTITLE11=Alejandro Escovedo - 1968
TTITLE12=Robbie Fulks - King of the Blues
TTITLE13=John Doe - Quiet Desperation
TTITLE14=Dave Gonzalez - Tired of Being Me
TTITLE15=Big Sandy and Los Straitjackets - Silent Partner
TTITLE16=Dan Penn - I'm So Proud
TTITLE17=Chris Gaffney - The Guitars of My Dead Friends
EXTD=
EXTT0=
EXTT1=
EXTT2=
EXTT3=
EXTT4=
EXTT5=
EXTT6=
EXTT7=
EXTT8=
EXTT9=
EXTT10=
EXTT11=
EXTT12=
EXTT13=
EXTT14=
EXTT15=
EXTT16=
EXTT17=
PLAYORDER=
